<svg width="123" height="27" viewBox="0 0 123 27" fill="none" xmlns="http://www.w3.org/2000/svg">
<path fill-rule="evenodd" clip-rule="evenodd" d="M0.682343 26.3289H118.423V24.9751H0.682343V26.3289ZM0.682343 1.96811H118.423V0.61499H0.682343V1.96811ZM48.0497 4.67501V22.2682H66.3205V18.0729H53.3276V4.67501H48.0497ZM44.8018 8.86964V4.67501H25.7195V22.2682H44.8018V18.0729H30.9974V15.5013H44.8018V11.306H30.9974V8.86964H44.8018ZM88.5148 8.86964V4.67501H69.4325V22.2682H88.5148V18.0729H74.7104V15.5013H88.5148V11.306H74.7104V8.86964H88.5148ZM8.93767 22.2682H14.2156V8.86964H22.4709V4.67501H0.682343V8.86964H8.93767V22.2682ZM111.86 4.67501L105.296 11.1708L98.3937 4.67501H92.0325L101.236 13.6072L92.1684 22.2682H98.5296L104.89 16.1112L111.387 22.2682H117.882L108.814 13.6072L118.017 4.67501H111.86ZM121.035 19.1259C119.966 19.1259 119.062 19.9484 119.062 21.0645C119.062 22.1909 119.966 23.0134 121.035 23.0134C122.094 23.0134 123 22.1909 123 21.0645C123 19.949 122.094 19.1259 121.035 19.1259ZM121.035 22.6888C120.146 22.6888 119.451 22.0003 119.451 21.0645C119.451 20.1442 120.146 19.4499 121.035 19.4499C121.914 19.4499 122.608 20.1442 122.608 21.0645C122.608 22.0003 121.914 22.6888 121.035 22.6888Z" fill="black"/>
<path fill-rule="evenodd" clip-rule="evenodd" d="M121.349 21.2035C121.678 21.1623 121.929 20.9871 121.929 20.5866C121.929 20.1441 121.667 19.949 121.137 19.949H120.283V22.1908H120.623V21.2183H121.014L121.605 22.1908H121.985L121.349 21.2035ZM120.623 20.9305V20.2369H121.086C121.323 20.2369 121.575 20.2877 121.575 20.566C121.575 20.9105 121.318 20.9305 121.03 20.9305H120.623Z" fill="black"/>
</svg>
