<svg width="150" height="34" viewBox="0 0 150 34" fill="none" xmlns="http://www.w3.org/2000/svg">
<path d="M42.9781 25.2821C40.1663 25.2821 38.901 23.3055 38.901 20.7137V11.5507C38.901 10.6474 39.5528 9.92749 40.4219 9.92749C41.2654 9.92749 41.9428 10.6474 41.9428 11.5507V13.1346H44.7801C45.5214 13.1346 46.186 13.7105 46.186 14.5221C46.186 15.2813 45.5342 15.8704 44.7801 15.8704H41.9428V20.6482C41.9428 21.7609 42.4157 22.363 43.4126 22.363C43.911 22.363 44.4095 22.219 44.8185 22.1143C45.9687 21.8394 46.6972 22.5725 46.6972 23.4364C46.6972 23.9469 46.4544 24.4836 45.7515 24.8109C44.9463 25.1643 43.8471 25.2821 42.9781 25.2821Z" fill="#424C50"/>
<path d="M56.1677 14.3126C56.1677 14.9409 55.6948 15.7787 54.7363 15.7787C54.2122 15.7787 53.7138 15.5431 53.0364 15.5693C52.2824 15.5955 51.8606 16.0143 51.8606 17.0746V23.6327C51.8606 24.5098 51.2088 25.2036 50.3397 25.2036C49.4962 25.2036 48.8188 24.5098 48.8188 23.6327V16.4856C48.8188 14.077 50.1991 12.5193 52.8064 12.5193C53.5477 12.5193 54.3017 12.5847 54.749 12.7025C55.682 12.9643 56.1677 13.5403 56.1677 14.3126Z" fill="#424C50"/>
<path d="M64.769 17.8601C64.9224 17.8601 65.0119 17.7685 65.0119 17.5852C65.0758 16.1715 64.2195 15.2159 62.7497 15.2159C61.1393 15.2159 60.3469 16.2631 60.3469 17.8601H64.769ZM67.9386 18.423C67.9386 19.3262 67.4913 19.9807 66.3794 19.9807H60.3597V20.2163C60.3597 21.6824 61.4461 22.4678 62.967 22.4678C63.7849 22.4678 64.6157 22.2584 65.3953 21.9573C66.5967 21.4991 67.3891 22.3238 67.3891 23.1878C67.3891 23.6328 67.2357 24.1171 66.6222 24.4837C65.7787 24.9942 64.3345 25.2952 62.8903 25.2952C59.759 25.2952 57.663 23.2794 57.433 20.3734C57.3691 19.4702 57.3818 18.1874 57.433 17.4674C57.7014 14.4567 59.8102 12.5325 62.7753 12.5325C65.8554 12.5325 67.9642 14.64 67.9642 17.9125V18.423H67.9386Z" fill="#424C50"/>
<path d="M77.5624 17.8601C77.7158 17.8601 77.818 17.7685 77.818 17.5852C77.882 16.1715 77.0257 15.2159 75.5559 15.2159C73.9455 15.2159 73.1531 16.2631 73.1531 17.8601H77.5624ZM80.732 18.423C80.732 19.3262 80.2847 19.9807 79.1728 19.9807H73.1531V20.2163C73.1531 21.6824 74.2395 22.4678 75.7604 22.4678C76.5783 22.4678 77.4091 22.2584 78.1887 21.9573C79.3901 21.4991 80.1825 22.3238 80.1825 23.1878C80.1825 23.6328 80.0291 24.1171 79.4156 24.4837C78.5721 24.9942 77.1279 25.2952 75.6837 25.2952C72.5525 25.2952 70.4564 23.2794 70.2264 20.3734C70.1625 19.4702 70.1881 18.1874 70.2264 17.4674C70.4948 14.4567 72.6036 12.5325 75.5687 12.5325C78.6488 12.5325 80.7576 14.64 80.7576 17.9125V18.423H80.732Z" fill="#424C50"/>
<path d="M86.3811 13.4355C86.8796 12.9774 88.0298 12.5323 89.2312 12.5323C92.1069 12.5323 93.8067 14.2995 93.8067 17.6113V23.5672C93.8067 24.4966 93.1677 25.2166 92.273 25.2166C91.4295 25.2166 90.7777 24.4966 90.7777 23.5672V17.7684C90.7777 16.3546 89.9853 15.5692 88.7456 15.5692C87.787 15.5692 86.8668 16.0143 86.3939 16.5379V23.6065C86.3939 24.4835 85.7549 25.2035 84.8986 25.2035C84.0551 25.2035 83.3649 24.4835 83.3649 23.6065V10.0452C83.3649 9.14201 84.0167 8.44824 84.8858 8.44824C85.7293 8.44824 86.4067 9.14201 86.4067 10.0452V13.4355" fill="#424C50"/>
<path d="M104.287 17.7422C104.223 16.4201 103.315 15.4907 101.884 15.4907C100.453 15.4907 99.5707 16.4201 99.4557 17.7422C99.4174 18.3705 99.4174 19.457 99.4557 20.0592C99.5707 21.3812 100.453 22.3106 101.884 22.3106C103.315 22.3106 104.197 21.3812 104.287 20.0592C104.338 19.457 104.338 18.3705 104.287 17.7422ZM101.884 25.2821C98.9189 25.2821 96.6695 23.3317 96.4523 20.5697C96.3884 19.6403 96.3884 18.1742 96.4523 17.2579C96.6823 14.4697 98.9189 12.5193 101.884 12.5193C104.875 12.5193 107.073 14.4697 107.29 17.2579C107.354 18.1873 107.354 19.6272 107.29 20.5566C107.073 23.3317 104.875 25.2821 101.884 25.2821Z" fill="#424C50"/>
<path d="M109.949 14.2472C109.949 13.3179 110.498 12.5979 111.444 12.5979C112.3 12.5979 112.978 13.3179 112.978 14.2472V20.164C112.978 21.5515 113.86 22.3238 115.15 22.3238C116.147 22.3238 116.901 22.0227 117.374 21.7217V14.208C117.374 13.3309 118.013 12.611 118.895 12.611C119.739 12.611 120.416 13.3309 120.416 14.208V22.8867C120.416 23.4234 120.275 23.7244 119.879 23.9732C119.176 24.4837 117.528 25.2953 115.099 25.2953C111.84 25.2953 109.961 23.4888 109.961 20.2163V14.2472" fill="#424C50"/>
<path d="M132.366 21.2503C132.366 23.8422 130.257 25.2821 127.637 25.2821C125.503 25.2821 124.148 24.6538 123.317 23.9338C122.78 23.4757 122.614 22.5855 123.049 22.0096C123.496 21.3812 124.276 21.2503 125.017 21.7347C125.72 22.1928 126.653 22.4939 127.714 22.4939C128.889 22.4939 129.439 22.0488 129.439 21.4205C129.439 20.91 129.081 20.5566 128.123 20.334C127.305 20.1508 127.33 20.177 126.448 19.9413C124.595 19.457 123.138 18.3836 123.138 16.3939C123.138 13.8937 125.106 12.5193 127.765 12.5193C129.196 12.5193 130.666 12.8858 131.458 13.5665C132.11 14.1294 132.072 15.0718 131.599 15.6347C131.152 16.1452 130.372 16.2107 129.631 15.818C129.043 15.5169 128.25 15.3075 127.663 15.3075C126.525 15.3075 126.052 15.7525 126.052 16.3023C126.052 16.7866 126.397 17.1139 127.407 17.3495L129.017 17.716C131.267 18.2789 132.366 19.4177 132.366 21.2503Z" fill="#424C50"/>
<path d="M141.772 17.8601C141.926 17.8601 142.028 17.7685 142.028 17.5852C142.092 16.1715 141.236 15.2159 139.766 15.2159C138.155 15.2159 137.363 16.2631 137.363 17.8601H141.772ZM144.942 18.423C144.942 19.3262 144.495 19.9807 143.383 19.9807H137.363V20.2163C137.363 21.6824 138.449 22.4678 139.97 22.4678C140.788 22.4678 141.619 22.2584 142.399 21.9573C143.6 21.4991 144.392 22.3238 144.392 23.1878C144.392 23.6328 144.239 24.1171 143.626 24.4837C142.782 24.9942 141.338 25.2952 139.894 25.2952C136.762 25.2952 134.666 23.2794 134.436 20.3734C134.372 19.4702 134.398 18.1874 134.436 17.4674C134.705 14.4567 136.814 12.5325 139.779 12.5325C142.859 12.5325 144.968 14.64 144.968 17.9125V18.423H144.942Z" fill="#424C50"/>
<path d="M148.469 12.9774L148.699 13.9853L148.93 12.9774C148.968 12.781 149.147 12.6501 149.313 12.6501C149.517 12.6501 149.671 12.768 149.722 13.0298L149.926 14.3519C149.952 14.5089 149.901 14.666 149.747 14.6922C149.569 14.7315 149.441 14.6267 149.428 14.4566L149.287 13.3439L149.032 14.3911C148.981 14.5744 148.878 14.6922 148.699 14.6922C148.533 14.6922 148.431 14.5875 148.367 14.3911L148.112 13.3439L147.971 14.4697C147.945 14.6267 147.83 14.7315 147.651 14.7053C147.498 14.6791 147.447 14.522 147.473 14.3649L147.677 13.0559C147.715 12.7941 147.882 12.6763 148.086 12.6763C148.265 12.6501 148.431 12.768 148.469 12.9774ZM146.885 14.4304C146.885 14.5875 146.77 14.6922 146.629 14.6922C146.476 14.6922 146.361 14.5744 146.361 14.4304V13.1999H145.964C145.837 13.1999 145.722 13.0821 145.722 12.9512C145.722 12.7941 145.837 12.6894 145.964 12.6894H147.268C147.396 12.6894 147.511 12.7941 147.511 12.9512C147.511 13.0821 147.396 13.1999 147.268 13.1999H146.885V14.4304Z" fill="#424C50"/>
<path d="M26.2362 7.02158C25.1626 6.40635 23.4628 7.40119 22.4276 9.24689L20.5488 12.5848C19.8587 13.9724 19.9609 15.6217 20.83 16.9046L20.8811 16.9831C21.7502 18.2659 22.9132 19.444 23.2967 19.8629C23.5267 20.1116 23.6929 20.4127 23.7951 20.7661C24.1146 21.9311 23.45 23.1354 22.3125 23.4496C21.1751 23.7768 19.9992 23.0962 19.6925 21.9311C19.6158 21.6432 19.5903 21.3421 19.6286 21.0672C19.6925 20.5829 19.5391 19.8106 18.8746 19.0382C18.21 18.2659 16.8297 19.7189 16.3823 21.2112L16.3568 21.2766C15.9094 22.7689 15.6283 24.0648 15.7177 24.1826C15.7689 24.2612 15.82 24.3397 15.8583 24.4182C16.4846 25.6225 16.0373 27.1017 14.8614 27.7431C13.6856 28.3845 12.2414 27.9264 11.6152 26.7221C10.9889 25.5178 11.4362 24.0386 12.612 23.3972L12.7654 23.3187C12.8549 23.2794 13.1105 22.6511 13.3278 21.9181C13.545 21.185 13.724 20.5829 13.724 20.5829C13.7495 20.5043 13.7623 20.4258 13.7879 20.3472L14.9765 16.0144L13.7112 18.6717C13.5578 18.1612 13.315 18.1481 12.7654 18.5408C12.4331 18.7764 11.8963 19.2477 11.6279 19.444C11.1295 19.8106 10.7077 20.5174 10.4905 20.9494C10.3627 21.1981 10.1837 21.4337 9.95367 21.6301C9.04625 22.3893 7.71706 22.2453 6.97578 21.3159C6.23451 20.3865 6.37509 19.0252 7.28252 18.2659C7.55091 18.0434 7.84487 17.8994 8.16438 17.834C8.70117 17.7161 10.5032 16.5773 11.6024 15.7788C11.7941 15.6348 11.9602 15.5039 12.088 15.373L15.002 13.1084L12.4587 14.5091C12.4587 14.5091 12.2031 14.4829 11.8835 14.5222C10.9506 14.6269 9.99201 14.7578 9.81308 14.9934C9.71084 15.1374 9.58303 15.2552 9.42967 15.373C8.58614 16.0014 7.39754 15.805 6.78407 14.928C6.1706 14.064 6.36231 12.8466 7.21862 12.2183C7.56369 11.9565 7.97267 11.8387 8.36887 11.8518C9.04625 11.8649 10.8355 12.2445 12.3309 11.9696L12.7143 11.9042C14.2096 11.6293 15.9989 10.2941 16.7146 8.91964C16.7146 8.91964 17.4176 7.66299 18.2739 6.10528C19.1429 4.56065 19.0663 2.85895 18.1333 2.30917L16.4335 1.32741C15.5772 0.82999 14.1713 0.82999 13.3022 1.32741L1.6207 8.14732C0.764397 8.64475 0.0614624 9.87521 0.0614624 10.8831V24.1172C0.0614624 25.1251 0.764397 26.3556 1.6207 26.853L13.3533 33.6205C14.2096 34.118 15.6155 34.118 16.4846 33.6205L28.1789 26.853C29.0352 26.3556 29.7381 25.1251 29.7381 24.1041V10.8831C29.7381 9.87521 29.0352 8.63166 28.1789 8.13423C28.1661 8.14732 27.3098 7.63681 26.2362 7.02158Z" fill="#67B569"/>
</svg>
