<svg width="138" height="33" viewBox="0 0 138 33" fill="none" xmlns="http://www.w3.org/2000/svg">
<path d="M53.3376 11.7094C52.1673 11.7094 51.2133 11.8898 50.5051 12.2442C50.1155 12.4401 49.7644 12.7043 49.4685 13.0243V6.27469H46.7319V26.1829H49.392V25.0068C49.6708 25.3196 50.004 25.5794 50.3756 25.7736C51.1141 26.1659 52.112 26.3641 53.3365 26.3641C55.367 26.3641 56.8341 25.9232 57.6983 25.0566C58.5626 24.1902 59.0003 22.7095 59.0003 20.6546V17.4336C59.0003 15.3673 58.5626 13.8807 57.6983 13.0151C56.8351 12.1484 55.3678 11.7094 53.3376 11.7094ZM56.1741 17.8847V20.2023C56.1741 22.2023 55.8708 22.9497 55.6191 23.2248C55.264 23.6105 54.4477 23.8153 53.2612 23.8153C51.912 23.8153 50.9314 23.5283 50.3468 22.96C49.7641 22.3957 49.4685 21.4506 49.4685 20.1515V17.9334C49.4685 16.627 49.7644 15.6778 50.3468 15.1117C50.9314 14.5436 51.912 14.2564 53.2609 14.2564C54.4485 14.2564 55.2637 14.4611 55.6188 14.8468C55.8708 15.1228 56.1741 15.8734 56.1741 17.8845V17.8847ZM72.2984 12.5414C71.8859 12.2369 71.288 12.0243 70.4717 11.895C69.7095 11.7716 68.5843 11.7083 67.1332 11.7083C65.1986 11.7083 63.8592 11.9713 63.0367 12.5109C62.1775 13.074 61.7409 14.011 61.7409 15.2942V15.9702H64.4701L64.4794 15.6118C64.4929 15.017 64.6487 14.6332 64.955 14.4398C65.1957 14.2858 65.7916 14.1035 67.2619 14.1035C69.4139 14.1035 70.076 14.3643 70.2801 14.5179C70.5115 14.691 70.782 15.1544 70.782 16.3765V17.8388C70.4993 17.6359 70.1676 17.4782 69.7922 17.36C69.0995 17.1452 68.1403 17.0413 66.8608 17.0413C65.6363 17.0413 64.7225 17.1006 64.062 17.2218C63.3682 17.3489 62.8275 17.5739 62.451 17.8877C62.0111 18.2572 61.6921 18.7552 61.5041 19.3603C61.3236 19.9405 61.2357 20.7095 61.2357 21.7084C61.2357 23.4639 61.645 24.6952 62.4521 25.3703C63.2511 26.0384 64.7262 26.3663 66.963 26.3663C68.1975 26.3663 69.1873 26.231 69.9003 25.963C70.3004 25.8142 70.6462 25.6116 70.9359 25.3601L70.9798 26.1869H73.5307V16.3297C73.5307 15.1687 73.4429 14.3602 73.2624 13.8612C73.0797 13.3378 72.7564 12.898 72.2981 12.5414H72.2984ZM70.7839 20.9359V22.3654C70.7839 22.6305 70.7026 23.0181 69.9911 23.3392C69.3729 23.6192 68.4444 23.7639 67.2384 23.7639C65.5895 23.7639 64.9152 23.5131 64.6395 23.3043C64.2671 23.0233 64.0785 22.4022 64.0785 21.4642C64.0785 20.6548 64.2539 20.1139 64.5978 19.8585C64.8558 19.6659 65.4865 19.4357 67.0169 19.4357C68.3964 19.4357 69.4036 19.5764 70.0096 19.8523C70.5381 20.0936 70.7839 20.4387 70.7839 20.9359ZM87.0672 18.08C86.7501 17.9313 86.2601 17.8236 85.5685 17.7452C84.9145 17.6719 84.0085 17.6118 82.8688 17.5688C82.5951 17.5567 82.3213 17.5482 82.0473 17.5434C80.4036 17.5028 79.768 17.3408 79.5333 17.2188C79.4108 17.1504 79.3333 17.0565 79.2832 16.9242C79.2496 16.8255 79.1894 16.5669 79.1894 15.9275C79.1894 15.4181 79.2691 14.7595 79.6455 14.5068C79.8423 14.3754 80.4516 14.1555 82.3097 14.1555C84.1665 14.1555 84.944 14.3234 85.2655 14.4671C85.6541 14.6372 85.8287 14.9153 85.8287 15.3732V15.8693H88.5785V15.5028C88.5785 14.1117 88.1622 13.1149 87.3439 12.5374C86.5561 11.9802 85.1389 11.7105 83.0176 11.7105C80.3066 11.7105 78.5801 11.9926 77.7435 12.575C76.8762 13.1782 76.4385 14.3053 76.4385 15.9275C76.4385 16.908 76.5551 17.6483 76.7998 18.189C77.0518 18.7522 77.4773 19.1983 78.0546 19.5172C78.3311 19.6759 78.972 19.8693 81.4812 19.9397C82.3127 19.964 82.9729 19.9916 83.4624 20.0159C85.0806 20.0995 85.5725 20.3357 85.7227 20.469C85.894 20.6219 86.097 21.0057 86.097 21.967C86.097 22.7541 85.9398 23.2767 85.6286 23.521C85.4389 23.6698 84.7993 23.9191 82.629 23.9191C80.7822 23.9191 80.019 23.6919 79.7068 23.5026C79.3038 23.2591 79.1078 22.799 79.1078 22.0955V21.4222H76.3344V22.1493C76.3344 23.7276 76.7816 24.844 77.6579 25.4683C78.5078 26.0731 80.1445 26.3682 82.6563 26.3682C83.8442 26.3682 84.7898 26.3254 85.4641 26.2419C86.1929 26.1534 86.7111 26.0027 87.048 25.7847C87.7499 25.356 88.25 24.844 88.5283 24.2684C88.8058 23.6971 88.9397 22.9051 88.9397 21.842C88.9397 20.7979 88.8029 20.0119 88.5191 19.4406C88.2326 18.8439 87.7407 18.3876 87.0672 18.08ZM101.491 21.4712L101.462 21.8053C101.396 22.5578 101.167 23.0831 100.783 23.3622C100.505 23.5678 99.8744 23.8123 98.4695 23.8123H97.5266C95.9717 23.8123 95.338 23.4864 95.0819 23.2134C94.8207 22.9354 94.5084 22.2645 94.5084 20.6492C94.5084 20.3519 94.5125 20.1217 94.5166 19.9548C94.5166 19.9202 94.5187 19.8885 94.5187 19.855L104.315 19.8399V17.4284C104.315 15.3429 103.869 13.8498 102.99 12.9937C102.102 12.126 100.622 11.7035 98.4684 11.7035H97.5279C95.383 11.7035 93.9106 12.126 93.0262 12.9937C92.1394 13.8642 91.7088 15.3145 91.7088 17.4273V20.6462C91.7088 22.7501 92.1424 24.1972 93.0341 25.0679C93.923 25.9365 95.4012 26.3582 97.5542 26.3582H98.4971C100.397 26.3582 101.821 26.0027 102.726 25.3033C103.653 24.5873 104.18 23.4274 104.288 21.8572L104.317 21.4639L101.491 21.4712ZM101.499 17.3489H94.535V17.1893C94.535 16.0413 94.7288 15.2339 95.1023 14.856C95.3597 14.5964 95.9869 14.284 97.5279 14.284H98.4705C100.02 14.284 100.66 14.5977 100.923 14.8593C101.298 15.2361 101.499 16.0405 101.499 17.1882V17.3489ZM118.794 11.4019H114.241L110.437 15.9223V5.78564H106.718V26.673H110.437V21.0354L114.995 26.6725H119.755L112.916 18.3073L118.794 11.4019ZM120.007 5.78592H123.727V9.76458H120.007V5.78592ZM120.007 11.4019H123.727V26.6728H120.007V11.4019ZM134.009 20.1828V21.4385C134.009 22.6779 133.775 22.9965 133.727 23.0484C133.685 23.0944 133.42 23.3254 132.388 23.3254C131.583 23.3254 131.156 23.1739 131.027 23.0311C130.958 22.9548 130.728 22.6138 130.728 21.4385V14.8247H137.392V11.4011H130.728V8.34801H126.996V11.4H125.33V14.8236H126.998V21.1534C126.998 23.2124 127.362 24.6373 128.118 25.5056C128.893 26.3977 130.205 26.851 132.016 26.851C134.281 26.851 135.775 26.4396 136.583 25.5943C137.381 24.7612 137.771 23.3081 137.771 21.1523V20.1828H134.01H134.009ZM17.2896 14.7278C17.9322 14.6169 18.3699 14.3248 18.6038 13.8552C18.8396 13.3857 18.9567 12.7716 18.9567 12.011C18.9567 11.2718 18.8334 10.7178 18.5884 10.3502C18.4027 10.1168 18.1355 9.95798 17.7834 9.87251C17.4333 9.78784 16.8712 9.74402 16.0998 9.74402H10.8371V14.7798H16.0497C16.6478 14.7776 17.062 14.7614 17.2896 14.7278Z" fill="#136AC9"/>
<path d="M37.506 0H3.24793C1.46731 0 0.0246582 1.43902 0.0246582 3.21371V29.5639C0.0246582 31.3367 1.46731 32.7768 3.24685 32.7768H37.506C39.2856 32.7768 40.7285 31.3367 40.7285 29.5639V3.21344C40.729 1.43902 39.2864 0 37.5058 0H37.506ZM21.8442 25.1476C20.9831 25.9042 19.4811 26.2799 17.3406 26.2799H7.02599V6.49802H16.9723C19.267 6.49802 20.8024 6.91242 21.578 7.7412C22.3719 8.45314 22.7656 9.75556 22.7656 11.6444C22.7656 13.1375 22.4919 14.2363 21.9463 14.9398C21.5116 15.4551 20.8422 15.8165 19.9381 16.0212V16.1251C20.9322 16.236 21.674 16.5436 22.1596 17.0426C22.6461 17.5417 22.9472 18.0935 23.0676 18.6964C23.1849 19.3012 23.2451 19.9907 23.2451 20.7667C23.2451 22.902 22.7768 24.3602 21.8442 25.1474V25.1476ZM31.9127 26.2799L23.2562 16.1565L31.2281 6.49992H35.8788L27.8641 16.1789L36.7 26.2818L31.9127 26.2796V26.2799Z" fill="#136AC9"/>
<path d="M16.7332 17.6831H10.8374V23.0345H16.5273C17.2211 23.0345 17.765 22.9826 18.161 22.8817C18.9925 22.5804 19.4077 21.7708 19.4077 20.4529C19.4077 19.3634 19.2405 18.6241 18.9036 18.2371C18.516 17.8684 17.7935 17.6831 16.7335 17.6831H16.7332Z" fill="#136AC9"/>
</svg>
