<svg width="130" height="39" viewBox="0 0 130 39" fill="none" xmlns="http://www.w3.org/2000/svg">
<path fill-rule="evenodd" clip-rule="evenodd" d="M24.208 23.2517C24.208 21.1317 23.9961 19.8605 23.1479 19.0116C22.2998 17.9516 21.0279 17.5279 18.2716 17.5279C16.7878 17.5279 15.7271 17.316 15.3034 17.316H7.67132C6.82317 17.1034 6.39874 16.6797 6.39874 15.8322C6.39874 14.7722 7.03503 14.3485 8.30692 14.1359H13.607C17.4227 14.1359 17.8471 14.3485 17.8471 16.0441H23.571C23.571 12.6515 22.9347 11.3796 21.0265 10.744C19.5428 10.1077 18.0583 10.1077 12.5463 10.1077C8.94183 10.1077 7.24621 10.1077 5.5499 10.3202C1.9454 10.744 0.885376 12.4403 0.885376 16.0441C0.885376 19.0116 1.52167 20.4954 3.64171 21.1317C4.48987 21.5561 6.18619 21.5561 8.94183 21.5561H14.0301C16.362 21.5561 16.5746 21.768 16.9983 21.768C18.0583 21.768 18.6939 22.4043 18.6939 23.2517C18.6939 24.9487 17.8465 25.1606 11.2744 25.1606C9.79068 25.1606 8.09437 25.1606 7.67063 24.9487C6.82248 24.7355 6.61061 24.3124 6.61061 23.0399H0.886756V24.0992C0.886756 26.8555 1.73491 28.1281 3.85496 28.7644C5.33872 28.9763 7.24759 29.1875 11.4877 29.1875C15.5159 29.1875 16.9997 29.1875 19.3323 28.7644C22.9361 28.5532 24.208 26.8562 24.208 23.2517ZM54.9487 28.9763L44.7729 10.1077H37.1401L26.5399 28.9763H32.9L34.8082 25.5837H46.8922L48.8004 28.9763H54.9487ZM44.9847 21.768H36.9283L40.7446 14.1359L44.9847 21.768Z" fill="#0C0E0F"/>
<path fill-rule="evenodd" clip-rule="evenodd" d="M56.645 19.6472C56.645 9.25949 65.1252 0.779297 75.5136 0.779297C83.7812 0.779297 90.777 6.29129 93.3222 13.7115C95.8659 6.29129 102.862 0.779297 111.131 0.779297C121.519 0.779297 130 9.25949 130 19.6472C130 30.0356 121.519 38.3046 111.131 38.3046C102.863 38.3046 95.8659 33.0031 93.3222 25.5829C90.777 33.0031 83.7819 38.3046 75.5136 38.3046C65.1252 38.3046 56.645 30.0356 56.645 19.6472Z" fill="#305DA2"/>
<path fill-rule="evenodd" clip-rule="evenodd" d="M87.1745 23.2517C87.1745 21.1317 86.7501 19.8605 86.1138 19.0116C85.0545 17.9516 83.9938 17.5279 81.2388 17.5279C79.7551 17.5279 78.4825 17.316 78.2692 17.316H70.6379C69.7898 17.1034 69.3653 16.6797 69.3653 15.8322C69.3653 14.7722 69.7898 14.3485 71.2742 14.1359H76.3624C80.1781 14.1359 80.8144 14.3485 80.8144 16.0441H86.3257C86.3257 12.6515 85.6908 11.3796 83.7819 10.744C82.5093 10.1077 81.0256 10.1077 75.5143 10.1077C71.9098 10.1077 70.2142 10.1077 68.306 10.3202C64.9134 10.744 63.6415 12.4403 63.6415 16.0441C63.6415 19.0116 64.4896 20.4954 66.3971 21.1317C67.4578 21.5561 68.9423 21.5561 71.6986 21.5561H76.9987C79.3307 21.5561 79.5425 21.768 79.7551 21.768C81.0263 21.768 81.4507 22.4043 81.4507 23.2517C81.4507 24.9487 80.8144 25.1606 74.0305 25.1606C72.5468 25.1606 71.0623 25.1606 70.426 24.9487C69.5779 24.7355 69.3653 24.3124 69.3653 23.0399H63.8533C63.6415 23.4643 63.6415 23.888 63.6415 24.0992C63.6415 26.8555 64.7015 28.1281 66.8216 28.7644C68.0941 28.9763 70.0009 29.1875 74.2417 29.1875C78.2692 29.1875 79.9663 29.1875 82.2982 28.7644C85.902 28.5532 87.1745 26.8562 87.1745 23.2517ZM125.335 28.9763L115.16 10.1077H107.315L96.9266 28.9763H103.286L105.195 25.5837H117.278L119.187 28.9763H125.335Z" fill="white"/>
<path fill-rule="evenodd" clip-rule="evenodd" d="M115.16 21.7678H107.103L111.131 14.135L115.16 21.7678Z" fill="#305DA2"/>
</svg>
