<svg width="143" height="28" viewBox="0 0 143 28" fill="none" xmlns="http://www.w3.org/2000/svg">
<path d="M13.1598 28L12.9266 28C12.81 27.8826 -0.342958 24.3591 0.00685526 4.6745L0.00685529 4.39262L1.80256 1.80873L2.15237 1.76175C2.38557 1.71477 13.1598 1.15046e-06 13.1598 1.15046e-06C13.1598 1.15046e-06 23.9806 1.69128 24.2138 1.76175L24.4937 1.80873L26.2894 4.39262L26.2894 4.6745C26.5226 14.8691 23.0245 20.6712 20.0627 23.7248C16.8445 27.0604 13.4629 28 13.1598 28ZM1.82588 5.02685C1.59267 21.7987 11.5506 25.604 13.1831 26.1208C14.8622 25.604 24.7502 21.7752 24.5403 4.95638L23.4442 3.38255C22.2316 3.10067 17.4508 1.92618 13.2064 1.80873C8.96204 1.92618 4.25124 3.10067 2.96859 3.38255L1.82588 5.02685Z" fill="#01426A"/>
<path d="M8.68207 12.2382L18.4536 12.2382L18.4536 14.1643L8.68207 14.1643L8.68207 12.2382ZM8.68207 17.1006L18.4536 17.1006L18.4536 19.0268L8.68207 19.0268L8.68207 17.1006ZM8.68207 7.37573L18.4536 7.37573L18.4536 9.30191L8.68207 9.30191L8.68207 7.37573Z" fill="#01426A"/>
<path d="M8.63546 14.9395C7.70262 14.9395 6.88638 14.1174 6.88638 13.1308C6.88638 12.1912 7.63266 11.3221 8.63546 11.3221L13.2297 11.3221L13.2297 9.98315L8.5655 9.98315C6.81642 9.98315 5.48712 11.3925 5.48712 13.1543C5.48712 14.916 6.88638 16.3254 8.5655 16.3254L13.2297 16.3254L13.2297 14.9395L8.63546 14.9395Z" fill="#42C31D"/>
<path d="M33.892 19.0974L33.892 7.4464L41.4479 7.4464L41.4479 9.06721L35.7343 9.0672L35.7343 12.4263L40.6783 12.4263L40.6783 14.0471L35.7343 14.0471L35.7343 17.4061L41.4479 17.4061L41.4479 19.0974L33.892 19.0974ZM47.3248 19.4028C46.2287 19.4028 45.1093 19.1209 44.0132 18.5806L43.8499 18.5337L44.6662 16.7719L44.8294 16.8189C45.6923 17.2182 46.5785 17.4531 47.3248 17.4531C49.307 17.4531 49.4236 16.3491 49.4236 16.0437C49.4236 15.527 49.377 14.8223 48.6074 14.5169C48.4442 14.4699 48.0244 14.282 47.558 14.1645C46.2753 13.9296 43.8966 13.4129 43.8966 10.4061C43.8966 9.41956 44.2464 8.59741 44.8761 8.01016C45.5757 7.42291 46.5085 7.14102 47.8378 7.14102C48.5841 7.14102 49.4003 7.25848 50.0533 7.30546C50.3331 7.35244 51.1027 7.42291 51.1027 7.42291L50.9861 9.34909C50.9861 9.34909 50.2399 9.23164 49.89 9.18466C49.307 9.13768 48.5608 9.0672 47.8611 9.02022C46.0654 8.97324 45.8789 9.88935 45.8322 10.3592C45.7856 10.7585 45.8322 11.6981 47.9311 12.1679C48.6307 12.3323 49.2604 12.5202 49.8434 12.8726C51.2893 13.6947 51.5225 15.1511 51.2426 16.7484C51.126 17.5001 50.6596 18.2048 49.8434 18.6746C49.2371 19.1679 48.3042 19.4028 47.3248 19.4028ZM57.376 19.3323C56.3965 19.3323 55.3471 19.2149 54.4609 18.3927C53.5281 17.4531 53.1316 15.9263 53.1783 13.178C53.1316 10.4766 53.5281 8.90278 54.4609 8.01016C55.2771 7.18801 56.3732 7.07056 57.376 7.07056C57.8424 7.07056 58.3088 7.07056 58.8219 7.11754C59.4516 7.16452 60.6876 7.39942 60.7342 7.39942L60.8975 7.4464L60.8975 9.44305C60.8975 9.44305 60.7342 9.44304 60.501 9.39606C60.1046 9.34908 59.1717 9.16117 58.7053 9.16117C58.1922 9.11419 57.7258 9.11419 57.376 9.11419C56.6298 9.11419 56.1633 9.23164 55.8602 9.46654C55.3938 9.93634 55.1605 11.1578 55.1605 13.2249L55.1605 13.2719C55.1139 15.2686 55.3238 16.5605 55.8602 17.0303C56.14 17.2652 56.5598 17.3827 57.376 17.3827C57.7725 17.3827 58.2389 17.3827 58.7053 17.3357C59.2883 17.2887 60.6876 17.0538 60.6876 17.0538L60.9208 17.0068L60.9208 19.0035L60.7575 19.0504C60.7109 19.0504 59.4283 19.2853 58.8452 19.3323C58.3089 19.2853 57.8424 19.3323 57.376 19.3323ZM69.8293 19.0974L66.9142 15.2216L65.2351 15.2216L65.2351 19.0974L63.1363 19.0974L63.1363 7.4464L68.0336 7.4464C69.4795 7.4464 71.2985 8.73835 71.2985 11.2048C71.2985 13.9531 69.2696 14.7753 69.153 14.8457L72.2314 19.1914L69.8527 19.1914L69.8527 19.0974L69.8293 19.0974ZM67.8704 13.178C68.5 13.178 69.2696 12.4733 69.2696 11.2988C69.2696 10.1947 68.64 9.53701 67.8237 9.53701L65.2585 9.53701L65.2585 13.178L67.8704 13.178ZM78.0382 19.3323C75.3564 19.3323 73.5607 17.8055 73.5607 15.5739L73.5607 10.7115C73.5607 8.55043 75.3097 7.18801 78.0382 7.18801C80.7201 7.18801 82.5158 8.71486 82.5158 10.9464L82.5158 15.6444C82.5158 17.8055 80.6502 19.3323 78.0382 19.3323ZM78.0382 9.02023C76.8256 9.02023 75.5429 9.49002 75.5429 10.8994L75.5429 15.3625C75.5429 16.584 76.5924 17.4766 78.0382 17.4766C79.4841 17.4766 80.5336 16.6075 80.5336 15.3625L80.5336 11.1343C80.4869 9.88935 79.4375 9.02023 78.0382 9.02023ZM93.5233 19.0504L91.3078 10.1947L89.0923 19.0504L86.7136 19.0504L83.7518 7.09405L85.944 7.09405L88.0429 15.527L90.1418 7.09405L92.5205 7.09405L94.6193 15.527L96.7182 7.09405L98.9337 7.09405L95.972 19.0504L93.5233 19.0504Z" fill="#01426A"/>
<path d="M100.496 19.3322C101.23 19.3322 101.826 18.7327 101.826 17.9932C101.826 17.2538 101.23 16.6543 100.496 16.6543C99.7621 16.6543 99.1669 17.2538 99.1669 17.9932C99.1669 18.7327 99.7621 19.3322 100.496 19.3322Z" fill="#42C31D"/>
<path d="M107.959 19.3323C106.979 19.3323 105.93 19.2149 105.044 18.3927C104.111 17.4531 103.714 15.9263 103.761 13.1779C103.714 10.4766 104.111 8.90277 105.044 8.01015C105.86 7.18801 106.956 7.07056 107.959 7.07056C108.425 7.07056 108.938 7.07056 109.475 7.11754C110.104 7.16452 111.27 7.39942 111.34 7.39942L111.504 7.4464L111.504 9.44304L111.34 9.44304C110.944 9.39606 109.708 9.16116 109.311 9.16116C108.798 9.11418 108.332 9.11419 107.982 9.11418C107.236 9.11418 106.769 9.23163 106.466 9.46653C106 9.93633 105.767 11.1578 105.767 13.2249L105.767 13.2719C105.72 15.2685 105.93 16.5605 106.466 17.0303C106.746 17.2652 107.166 17.3826 107.982 17.3826C108.379 17.3826 108.845 17.3826 109.311 17.3357C109.894 17.2887 111.294 17.0538 111.294 17.0538L111.527 17.0068L111.527 19.0034L111.364 19.0504C111.317 19.0504 110.034 19.2853 109.451 19.3323L107.959 19.3323ZM118.08 19.3323C115.515 19.3323 113.719 17.8055 113.719 15.5739L113.719 10.641C113.719 8.47996 115.468 7.11754 118.08 7.11754C120.645 7.11754 122.441 8.64439 122.441 10.8759L122.441 15.5739C122.441 17.8055 120.622 19.3323 118.08 19.3323ZM118.08 9.02022C116.914 9.02022 115.631 9.49002 115.631 10.8994L115.631 15.3625C115.631 16.584 116.611 17.4766 118.08 17.4766C119.479 17.4766 120.529 16.6075 120.529 15.3625L120.529 11.1343C120.459 9.88935 119.479 9.02022 118.08 9.02022ZM133.845 19.3323L133.542 12.1209L131.326 17.7585L129.134 17.7585L126.849 12.1209L126.615 19.3323L124.54 19.3323L124.936 7.14103L126.965 7.14103L130.23 15.292L133.495 7.14103L135.477 7.14103L135.944 19.3323L133.845 19.3323Z" fill="#42C31D"/>
<path d="M140.072 17.6411L139.489 17.6411L139.489 19.3323L139.139 19.3323L139.139 17.6411L138.556 17.6411L138.556 17.3592L140.118 17.3592L140.118 17.6411L140.072 17.6411ZM142.684 17.3357L142.684 19.3323L142.334 19.3323L142.334 18.0404L142.334 17.876L141.751 19.0504C141.751 19.0974 141.704 19.0974 141.634 19.0974L141.588 19.0974C141.541 19.0974 141.471 19.0974 141.471 19.0504L140.841 17.876L140.841 19.3323L140.491 19.3323L140.491 17.3357L140.865 17.3357L140.865 17.3827L141.448 18.4867C141.448 18.5337 141.494 18.5337 141.494 18.6041C141.494 18.6511 141.494 18.6511 141.541 18.7216C141.541 18.6746 141.541 18.6746 141.588 18.6041C141.588 18.5572 141.588 18.5572 141.634 18.4867L142.217 17.3827L142.217 17.3357L142.31 17.3357L142.684 17.3357Z" fill="#01426A"/>
</svg>
